<svg xmlns="http://www.w3.org/2000/svg" version="1.1" xmlns:xlink="http://www.w3.org/1999/xlink" xmlns:svgjs="http://svgjs.dev/svgjs" width="534" height="560"><svg version="1.1" xmlns="http://www.w3.org/2000/svg" width="534" height="560">
<path d="M0 0 C0.77900665 -0.00067474 1.55801331 -0.00134949 2.36062622 -0.00204468 C14.87538619 0.01514085 26.97150104 0.64700901 39.25 3.25 C40.07419434 3.42160645 40.89838867 3.59321289 41.74755859 3.77001953 C60.27269277 7.74654459 77.59398049 14.26034842 94.25 23.25 C94.86214355 23.57613281 95.47428711 23.90226562 96.10498047 24.23828125 C104.72901905 28.86233184 112.5809938 34.17168053 120.25 40.25 C121.1059375 40.90097656 121.961875 41.55195313 122.84375 42.22265625 C135.15685724 51.84690724 146.24426769 63.17469627 155.75 75.5625 C156.29575684 76.27341797 156.84151367 76.98433594 157.40380859 77.71679688 C159.7719624 80.90306817 161.46650771 83.30386101 162.25 87.25 C161.04039039 88.14196209 159.83074748 89.033879 158.62109375 89.92578125 C157.83992188 90.50183105 157.05875 91.07788086 156.25390625 91.67138672 C154.53457403 92.93831474 152.8145144 94.20425617 151.09375 95.46923828 C146.96640469 98.50418629 142.84608861 101.54666236 138.75390625 104.62890625 C138.07465088 105.13703857 137.39539551 105.6451709 136.69555664 106.16870117 C135.42092317 107.12279687 134.15039786 108.08241145 132.88452148 109.0480957 C128.58759627 112.25 128.58759627 112.25 125.25 112.25 C123.5234375 110.1953125 123.5234375 110.1953125 121.625 107.375 C117.55317532 101.57506029 113.12638791 96.38427381 108.25 91.25 C107.55390625 90.51305908 107.55390625 90.51305908 106.84375 89.76123047 C105.3856085 88.22601301 103.91438025 86.70468352 102.4375 85.1875 C101.54417969 84.26839844 100.65085937 83.34929687 99.73046875 82.40234375 C97.30359511 80.29650536 96.36862575 79.51973492 93.25 79.25 C91.38425383 80.39513169 91.38425383 80.39513169 89.70996094 82.23828125 C89.03535828 82.91648926 88.36075562 83.59469727 87.66571045 84.29345703 C86.5859494 85.4166333 86.5859494 85.4166333 85.484375 86.5625 C84.73214661 87.3241748 83.97991821 88.08584961 83.20489502 88.87060547 C80.79125407 91.31893145 78.39522337 93.78366468 76 96.25 C73.61581503 98.68436818 71.22809904 101.11518738 68.83795166 103.54370117 C67.35110343 105.05665252 65.86822893 106.57352322 64.39007568 108.0949707 C60.47864474 112.09868753 56.46024388 115.86252823 52.21783447 119.51196289 C48.84096568 122.49449183 45.6957482 125.70168747 42.53125 128.90625 C41.82907349 129.61221313 41.12689697 130.31817627 40.40344238 131.04553223 C38.18315397 133.27791358 35.96616045 135.51352111 33.75 137.75 C30.82590521 140.70090378 27.89836943 143.64833203 24.96875 146.59375 C23.985578 147.58936951 23.985578 147.58936951 22.98254395 148.60510254 C19.10906342 152.49875616 15.12103229 156.19271373 10.95446777 159.7716217 C8.96607088 161.49626728 7.09164138 163.30749109 5.25 165.1875 C4.6725 165.77402344 4.095 166.36054688 3.5 166.96484375 C3.0875 167.38894531 2.675 167.81304687 2.25 168.25 C4.98304882 172.56299312 7.91444979 176.21109913 11.4375 179.9375 C15.02206121 183.77059079 18.4612351 187.65533956 21.75 191.75 C25.3856405 196.26858176 29.21836402 200.52983329 33.16625977 204.77172852 C36.13715628 207.9829905 38.94961077 211.27627815 41.6875 214.6875 C45.53110057 219.46621628 49.61960164 223.94157687 53.80834961 228.41381836 C57.7099667 232.60329526 61.32324797 236.97172936 64.90625 241.4375 C67.58208171 244.64849805 70.39358276 247.70029137 73.25 250.75 C77.68832674 255.48866464 81.8414225 260.37119326 85.90625 265.4375 C89.05908426 269.22090111 92.41615015 272.79254937 95.78222656 276.38549805 C100.5241213 281.47669097 104.92437582 286.7992766 109.25 292.25 C118.10959847 288.73015952 124.10543999 276.87585906 129.25 269.25 C132.84897271 270.54955216 135.65265723 272.09322249 138.69140625 274.41015625 C139.51737305 275.035271 140.34333984 275.66038574 141.19433594 276.30444336 C142.05833008 276.96710205 142.92232422 277.62976074 143.8125 278.3125 C144.6984082 278.98482666 145.58431641 279.65715332 146.49707031 280.34985352 C148.26607482 281.69240734 150.03352321 283.03701435 151.79931641 284.38378906 C155.0196808 286.83611676 158.25796199 289.2639487 161.5 291.6875 C163.08333333 292.875 164.66666667 294.0625 166.25 295.25 C160.2262192 312.14080246 142.18688092 330.05072069 128.25 341.25 C126.88875 342.36761719 126.88875 342.36761719 125.5 343.5078125 C83.96671861 376.63060441 31.71573368 389.80711157 -20.8125 384.0625 C-46.82636805 380.88680098 -71.67103491 373.77408003 -94.75 361.25 C-95.72839844 360.74855469 -96.70679688 360.24710937 -97.71484375 359.73046875 C-129.66018041 343.09322742 -154.36018179 315.97347222 -170.75 284.25 C-171.09514648 283.58564941 -171.44029297 282.92129883 -171.79589844 282.23681641 C-184.91931404 256.62459168 -191.26545372 228.88136714 -192.75 200.25 C-192.81058594 199.08726562 -192.87117188 197.92453125 -192.93359375 196.7265625 C-193.00452633 193.54711389 -192.91551909 190.42655793 -192.75 187.25 C-192.70891113 186.45754883 -192.66782227 185.66509766 -192.62548828 184.84863281 C-189.93975821 137.67245419 -172.12607936 94.72905733 -139.75 60.25 C-139.25790039 59.72390137 -138.76580078 59.19780273 -138.25878906 58.65576172 C-102.58090556 20.82584422 -51.75954515 0.04029149 0 0 Z M-132.30126953 71.8828125 C-166.69963089 109.43772937 -180.88151989 158.08541797 -178.75 208.25 C-177.2438454 230.08034011 -171.16831713 251.55941622 -161.75 271.25 C-161.37359375 272.03858398 -160.9971875 272.82716797 -160.609375 273.63964844 C-152.14099216 291.09157407 -141.510655 306.56186492 -127.75 320.25 C-127.27626953 320.72630859 -126.80253906 321.20261719 -126.31445312 321.69335938 C-98.53488185 349.32050502 -59.88967642 364.34847963 -21.75 370.25 C-21.07662598 370.3545752 -20.40325195 370.45915039 -19.70947266 370.56689453 C25.5945354 376.57803636 74.10939026 365.43522753 110.5546875 337.57080078 C122.50802864 328.25807389 133.66129949 318.11007605 143.0625 306.1875 C143.50166748 305.63916504 143.94083496 305.09083008 144.39331055 304.52587891 C145.73257244 302.82097869 145.73257244 302.82097869 147.25 300.25 C145.96001392 296.38004175 144.19722296 295.4005377 140.9375 293 C139.97199219 292.27296875 139.00648438 291.5459375 138.01171875 290.796875 C135.47954884 289.09931319 135.47954884 289.09931319 133.203125 289.1875 C130.27526532 290.78025567 128.49652447 292.99083505 126.3125 295.5 C125.33160613 296.59960394 124.34844544 297.69718907 123.36328125 298.79296875 C122.8523291 299.36321777 122.34137695 299.9334668 121.81494141 300.52099609 C93.92149572 331.33868445 54.92981977 350.41082697 13.3125 353.125 C-32.60802455 354.99930712 -78.16986844 341.15009146 -112.41796875 309.71923828 C-141.67144781 282.39500356 -159.11648511 242.72128284 -160.8581543 202.76904297 C-162.01626771 154.52534693 -145.46760288 112.54477623 -112.19360352 77.61621094 C-101.07956353 66.22058381 -87.87514272 57.44957565 -73.75 50.25 C-73.08033203 49.90098633 -72.41066406 49.55197266 -71.72070312 49.19238281 C-34.17998237 29.77785373 10.64007562 27.03058684 50.86279297 39.46826172 C76.05624903 47.7183585 97.30711207 60.81979259 116.25 79.25 C117.04664063 80.01828125 117.84328125 80.7865625 118.6640625 81.578125 C122.44611021 85.28934784 125.93998778 89.11248473 129.25 93.25 C134.18054827 90.53316728 138.71284362 87.58342102 143.25 84.25 C141.72147075 80.71324349 139.6083611 78.25435254 137 75.4375 C134.32518074 72.52804747 131.69561521 69.61645847 129.1875 66.5625 C101.65279596 34.23672704 56.75128413 18.1251429 15.75 13.5625 C-40.35176093 9.4574931 -93.7325363 31.28670173 -132.30126953 71.8828125 Z M-31.75 48.25 C-32.5440625 48.45931152 -33.338125 48.66862305 -34.15625 48.88427734 C-45.18659433 51.85414711 -55.13579766 55.70105614 -65.75 60.25 C-65.75 96.88 -65.75 133.51 -65.75 171.25 C-61.26299874 167.40399892 -56.99968599 163.63260257 -52.87890625 159.44140625 C-52.35288315 158.91159653 -51.82686005 158.3817868 -51.28489685 157.83592224 C-49.0694152 155.60434099 -46.86001843 153.36677295 -44.65014648 151.12963867 C-39.1923689 145.61056493 -33.75194483 140.15486804 -27.83959961 135.11694336 C-22.92826278 130.72893159 -18.37575176 125.93571521 -13.75 121.25 C-2.18006282 109.53008216 -2.18006282 109.53008216 2.21875 105.78125 C8.06128154 100.79578403 13.35647314 95.21036903 18.75 89.75 C31.1364305 77.21006402 31.1364305 77.21006402 37.40429688 71.86865234 C40.84704338 68.8494183 44.03436304 65.56969091 47.25 62.3125 C47.92933594 61.62865234 48.60867188 60.94480469 49.30859375 60.24023438 C50.95808359 58.57912841 52.6051668 56.91571487 54.25 55.25 C50.22002506 52.56335004 46.06729312 51.56999747 41.4375 50.25 C40.13135742 49.85941406 40.13135742 49.85941406 38.79882812 49.4609375 C26.30281842 45.87252572 13.89747469 44.88104358 0.9375 44.9375 C-0.07988754 44.94073273 -0.07988754 44.94073273 -1.11782837 44.94403076 C-11.62271667 44.99744205 -21.57120173 45.51420607 -31.75 48.25 Z M65.7512207 62.42407227 C65.23132568 62.96604248 64.71143066 63.5080127 64.17578125 64.06640625 C63.29696289 64.96649414 63.29696289 64.96649414 62.40039062 65.88476562 C61.79388672 66.52091797 61.18738281 67.15707031 60.5625 67.8125 C57.00998535 71.49760027 53.47387709 75.11294173 49.57421875 78.43359375 C43.64801169 83.53562157 38.24156725 89.19037556 32.75 94.75 C20.6199172 107.03041135 20.6199172 107.03041135 14.34179688 112.38085938 C9.42993079 116.76989377 4.87650789 121.56351886 0.25 126.25 C-11.31993718 137.96991784 -11.31993718 137.96991784 -15.71875 141.71875 C-21.56128154 146.70421597 -26.85647314 152.28963097 -32.25 157.75 C-48.24146399 173.93964678 -48.24146399 173.93964678 -56.375 179.93359375 C-61.10734626 183.65065391 -65.12148797 187.06673724 -66.33056641 193.19042969 C-66.877355 200.23391621 -66.47502439 207.23227873 -65.75 214.25 C-60.72260583 210.03263014 -56.05296773 205.61281328 -51.47265625 200.91015625 C-49.38106535 198.86657892 -47.27829631 196.96201492 -45.06225586 195.06225586 C-40.87115603 191.40789875 -36.93695474 187.54890316 -33.03125 183.59375 C-32.32907349 182.88778687 -31.62689697 182.18182373 -30.90344238 181.45446777 C-28.68315397 179.22208642 -26.46616045 176.98647889 -24.25 174.75 C-21.32590521 171.79909622 -18.39836943 168.85166797 -15.46875 165.90625 C-14.813302 165.24250366 -14.157854 164.57875732 -13.48254395 163.89489746 C-9.70033123 160.09298697 -5.79683553 156.51690305 -1.73815918 153.01330566 C1.64050785 150.01675349 4.79669163 146.80596841 7.96875 143.59375 C8.67092651 142.88778687 9.37310303 142.18182373 10.09655762 141.45446777 C12.31684603 139.22208642 14.53383955 136.98647889 16.75 134.75 C19.67409479 131.79909622 22.60163057 128.85166797 25.53125 125.90625 C26.186698 125.24250366 26.842146 124.57875732 27.51745605 123.89489746 C31.29966877 120.09298697 35.20316447 116.51690305 39.26184082 113.01330566 C42.64050785 110.01675349 45.79669163 106.80596841 48.96875 103.59375 C49.67092651 102.88778687 50.37310303 102.18182373 51.09655762 101.45446777 C53.31684603 99.22208642 55.53383955 96.98647889 57.75 94.75 C60.67409479 91.79909622 63.60163057 88.85166797 66.53125 85.90625 C67.186698 85.24250366 67.842146 84.57875732 68.51745605 83.89489746 C72.43215755 79.95980819 76.45886234 76.3032314 80.7713623 72.80505371 C82.59453841 71.24529321 82.59453841 71.24529321 82.25 68.25 C79.67090496 66.3112764 79.67090496 66.3112764 76.4375 64.5625 C74.81908203 63.62857422 74.81908203 63.62857422 73.16796875 62.67578125 C69.36565496 60.7666873 69.36565496 60.7666873 65.7512207 62.42407227 Z M-86.5625 73.5625 C-87.09681641 73.96662109 -87.63113281 74.37074219 -88.18164062 74.78710938 C-89.70556983 75.93989715 -91.22782227 77.09490051 -92.75 78.25 C-93.45933056 78.6095578 -94.16866112 78.9691156 -94.89948654 79.33956909 C-97.86989633 82.40615726 -97.34215579 86.0336408 -97.33868408 90.07861328 C-97.35339083 90.99221461 -97.36809759 91.90581594 -97.38325 92.84710217 C-97.42745279 95.9215956 -97.44278043 98.99554864 -97.45800781 102.0703125 C-97.48306304 104.26964543 -97.50964996 106.46896137 -97.53765869 108.66825867 C-97.60734149 114.6541068 -97.64951872 120.63982703 -97.68248081 126.62598038 C-97.70307781 130.36642935 -97.72738114 134.10683858 -97.75252533 137.84725952 C-97.82001679 148.20996336 -97.87854999 158.57264191 -97.90752029 168.93553162 C-97.91515951 171.62450177 -97.92284088 174.31347178 -97.93066406 177.00244141 C-97.93259902 177.67074781 -97.93453398 178.33905421 -97.93652758 179.02761233 C-97.96969595 189.842572 -98.07097654 200.65575707 -98.20098677 211.46994257 C-98.3334781 222.58147807 -98.4040043 233.69227638 -98.41809726 244.80462265 C-98.42749498 251.04079308 -98.46325085 257.27416125 -98.56394196 263.50958252 C-98.65722251 269.38120798 -98.67395423 275.24819592 -98.63289642 281.12037086 C-98.63091759 283.27028674 -98.65613131 285.42043341 -98.71112061 287.56964684 C-99.32098811 298.54459581 -99.32098811 298.54459581 -95.1059866 308.24023056 C-91.53521338 311.43914609 -84.7663093 317.25 -79.75 317.25 C-79.75 235.41 -79.75 153.57 -79.75 69.25 C-82.10531758 69.25 -84.68365389 72.13173761 -86.5625 73.5625 Z M-111.75 96.25 C-139.34202721 129.11301876 -150.58087019 168.5699524 -147.54785156 211.08349609 C-146.98622953 216.55666173 -146.00635105 221.89604727 -144.75 227.25 C-144.56727539 228.03181641 -144.38455078 228.81363281 -144.19628906 229.61914062 C-138.55018018 252.66713187 -127.62913138 275.37086862 -110.75 292.25 C-110.75 227.57 -110.75 162.89 -110.75 96.25 C-111.08 96.25 -111.41 96.25 -111.75 96.25 Z M-9.75 179.25 C-13.38 182.88 -17.01 186.51 -20.75 190.25 C-18.22291367 194.46181055 -15.95244473 197.35795728 -12.625 200.875 C-9.03839508 204.70761113 -5.59624002 208.58732736 -2.3125 212.6875 C1.53110057 217.46621628 5.61960164 221.94157687 9.80834961 226.41381836 C13.7099667 230.60329526 17.32324797 234.97172936 20.90625 239.4375 C23.58208171 242.64849805 26.39358276 245.70029137 29.25 248.75 C33.68832674 253.48866464 37.8414225 258.37119326 41.90625 263.4375 C44.58208278 266.64849934 47.39359707 269.70027636 50.25 272.75 C54.70874444 277.51088994 58.8879783 282.4146782 62.97265625 287.50390625 C65.90249402 291.03679811 69.01451299 294.38558588 72.14013672 297.7434082 C76.74744007 302.72337309 81.02055524 307.94491867 85.25 313.25 C89.2020518 312.66827275 91.47095053 310.69842259 94.5 308.1875 C95.39203125 307.45402344 96.2840625 306.72054687 97.203125 305.96484375 C98.21632813 305.11599609 98.21632813 305.11599609 99.25 304.25 C98.82003828 299.78914714 95.71462821 297.23518113 92.75 294.1875 C88.92035465 290.15390903 85.22467939 286.09973652 81.75 281.75 C78.40698239 277.58334037 74.89886656 273.64578234 71.25 269.75 C66.81167326 265.01133536 62.6585775 260.12880674 58.59375 255.0625 C55.91791722 251.85150066 53.10640293 248.79972364 50.25 245.75 C45.79125556 240.98911006 41.6120217 236.0853218 37.52734375 230.99609375 C35.0317361 227.98681042 32.41236519 225.11059714 29.75 222.25 C26.29838064 218.54138312 22.98477852 214.76494105 19.8125 210.8125 C15.97531692 206.04176254 11.89850161 201.56846567 7.70922852 197.11035156 C3.61183636 192.72174414 -0.13882221 188.14665612 -3.8125 183.39453125 C-5.81883654 180.91235247 -5.81883654 180.91235247 -9.75 179.25 Z M-31.75 200.25 C-45.76541761 207.78065579 -60.62524538 218.50571636 -65.75 234.25 C-69.20788906 249.6616296 -68.30890153 266.19552173 -67.875 281.875 C-67.84589539 282.93405674 -67.81679077 283.99311348 -67.7868042 285.08426285 C-67.3916701 298.49122085 -66.69884859 311.87132348 -65.75 325.25 C-63.5280121 326.21519253 -61.30480472 327.17738958 -59.08081055 328.13793945 C-58.45742546 328.40908821 -57.83404037 328.68023697 -57.19176483 328.95960236 C-52.06781197 331.16835654 -46.93611113 332.95523491 -41.5625 334.4375 C-40.22070679 334.8080249 -40.22070679 334.8080249 -38.85180664 335.18603516 C-15.08269932 341.54320659 10.17786341 342.94029144 34.25 337.25 C34.96736328 337.08902832 35.68472656 336.92805664 36.42382812 336.76220703 C45.76764675 334.6197147 54.49012676 331.51635378 63.25 327.625 C64.11737793 327.24069824 64.98475586 326.85639648 65.87841797 326.46044922 C70.7907891 324.28548013 70.7907891 324.28548013 74.25 320.25 C73.32380859 319.25033203 73.32380859 319.25033203 72.37890625 318.23046875 C68.07184484 313.5431797 63.86162122 308.84181799 59.875 303.875 C56.00781137 299.0785929 51.90019284 294.5795854 47.69189453 290.08642578 C43.7901747 285.89688433 40.17682513 281.52836175 36.59375 277.0625 C33.91791829 273.85150195 31.10641724 270.79970863 28.25 267.75 C23.81167326 263.01133536 19.6585775 258.12880674 15.59375 253.0625 C12.91791829 249.85150195 10.10641724 246.79970863 7.25 243.75 C2.81167326 239.01133536 -1.3414225 234.12880674 -5.40625 229.0625 C-8.56068215 225.27718142 -11.9181116 221.70221234 -15.28881836 218.11010742 C-19.39485698 213.70724673 -23.18785105 209.12885984 -26.91015625 204.39453125 C-28.74944134 202.05514674 -28.74944134 202.05514674 -31.75 200.25 Z " fill="#000000" transform="translate(273.75,104.75)"></path>
<path d="M0 0 C8.81247365 5.3931717 13.49469204 11.99913651 16 22 C16 22.66 16 23.32 16 24 C17.1653125 24.14695312 18.330625 24.29390625 19.53125 24.4453125 C68.61974486 31.00501096 115.04364585 51.13321669 153 83 C153.51594727 83.42716309 154.03189453 83.85432617 154.56347656 84.29443359 C166.3349203 94.05421562 177.41000089 104.33386189 186.91015625 116.359375 C188.25909237 118.06382513 189.64023315 119.74349656 191.05859375 121.390625 C210.04465353 143.54683421 223.64786903 169.88727604 234 197 C234.30131836 197.78793945 234.60263672 198.57587891 234.91308594 199.38769531 C242.4187036 219.42919737 246.62562857 240.77728162 249 262 C249.19722656 263.73056641 249.19722656 263.73056641 249.3984375 265.49609375 C253.5155829 310.95160446 245.13863383 356.32897226 227 398 C226.6479248 398.8132373 226.29584961 399.62647461 225.93310547 400.46435547 C215.24167151 424.87132708 200.08781638 446.97396835 182.15625 466.625 C180.2143852 468.76386558 178.32022404 470.93419385 176.4375 473.125 C170.46718923 479.96196878 163.96078135 486.1825354 157 492 C156.49645996 492.42265137 155.99291992 492.84530273 155.47412109 493.28076172 C99.94416465 539.61755082 28.98807311 561.30859626 -42.9621582 554.98413086 C-91.07593297 550.26785524 -138.65486514 532.71337697 -177 503 C-177.62535645 502.51595703 -178.25071289 502.03191406 -178.89501953 501.53320312 C-235.41787104 457.40559176 -272.89297489 394.17460285 -282.11230469 322.75585938 C-290.32456356 254.86460351 -273.18126833 183.43495784 -231 129 C-230.51595703 128.37464355 -230.03191406 127.74928711 -229.53320312 127.10498047 C-187.04592458 72.68322362 -125.22867346 33.80043781 -56.125 24.6875 C-54.08459924 24.44732324 -52.04339035 24.21325102 -50 24 C-49.79375 22.88625 -49.5875 21.7725 -49.375 20.625 C-47.33684922 12.64224277 -43.07840543 5.83179002 -36.1796875 1.25 C-24.60930889 -5.38534257 -11.9497081 -6.71261864 0 0 Z M-206.3515625 121.6640625 C-208.6255893 124.40116385 -210.81728725 127.18953185 -213 130 C-214.00597354 131.25433701 -215.01252341 132.50821195 -216.01953125 133.76171875 C-224.37113057 144.28021951 -231.38757672 155.3216265 -238 167 C-238.41233887 167.71623535 -238.82467773 168.4324707 -239.24951172 169.17041016 C-259.88443665 205.20707287 -269.49210749 247.31478426 -269.3125 288.625 C-269.31067719 289.5001828 -269.30885437 290.3753656 -269.30697632 291.27706909 C-269.2588065 305.05473584 -268.58137866 318.43686744 -266 332 C-265.83902832 332.90282715 -265.67805664 333.8056543 -265.51220703 334.73583984 C-257.23554636 380.44431456 -236.06314719 424.25845702 -204 458 C-202.80523226 459.36868963 -201.61719728 460.74329976 -200.4375 462.125 C-194.11949568 469.35609586 -187.30407925 475.76062503 -179.8046875 481.75390625 C-177.97789738 483.21686491 -176.16933051 484.70296955 -174.3828125 486.21484375 C-142.09481998 513.47280776 -101.35300717 530.62686879 -60 538 C-59.14744629 538.16226074 -58.29489258 538.32452148 -57.41650391 538.49169922 C-30.66904699 543.44834212 -0.68733735 543.07921919 26 538 C26.90282715 537.83902832 27.8056543 537.67805664 28.73583984 537.51220703 C73.83045418 529.34670111 117.57953267 508.57086131 151 477 C152.30794571 475.86970833 153.62036248 474.74456689 154.9375 473.625 C163.849046 465.82739725 171.71712299 457.32535053 179 448 C179.48726563 447.38914551 179.97453125 446.77829102 180.4765625 446.14892578 C188.89267515 435.59509979 196.32273904 424.73208001 203 413 C203.42909668 412.25024902 203.85819336 411.50049805 204.30029297 410.72802734 C216.99825365 388.28903359 225.37750929 363.97260043 230.75 338.8125 C230.94883789 337.88767822 231.14767578 336.96285645 231.35253906 336.01000977 C234.50677401 320.48094828 235.37912347 305.1807954 235.3125 289.375 C235.31034485 288.45146729 235.3081897 287.52793457 235.30596924 286.57641602 C235.25342969 272.52254277 234.77013236 258.81830626 232 245 C231.80132324 243.98164063 231.60264648 242.96328125 231.39794922 241.9140625 C222.58226001 197.85542699 203.11093503 156.52557715 173 123 C172.53996582 122.48501953 172.07993164 121.97003906 171.60595703 121.43945312 C162.8802083 111.69263818 153.97047096 102.40224865 143.66064453 94.30566406 C142.48339853 93.38006694 141.31030101 92.44918238 140.14013672 91.51464844 C129.58935993 83.10201727 118.72806723 75.67497711 107 69 C105.87537354 68.35635498 105.87537354 68.35635498 104.72802734 67.69970703 C78.73597959 52.99111519 49.56668384 43.23577892 20 39 C19.04996094 38.85304687 18.09992188 38.70609375 17.12109375 38.5546875 C14.73305946 38.80647843 14.73305946 38.80647843 13.296875 41.37890625 C12.78640625 42.42949219 12.2759375 43.48007812 11.75 44.5625 C7.67373794 52.04447019 2.75031955 56.72702753 -5.1875 59.9375 C-14.05818863 62.43869242 -24.74027401 62.33828599 -33 58 C-39.9017116 53.80439608 -43.5321652 49.18635646 -47 42 C-47.99 40.515 -47.99 40.515 -49 39 C-103.71527393 33.3555536 -171.92476077 82.66227051 -206.3515625 121.6640625 Z " fill="#000000" transform="translate(284,4)"></path>
</svg><style>@media (prefers-color-scheme: light) { :root { filter: none; } }
@media (prefers-color-scheme: dark) { :root { filter: none; } }
</style></svg>